<?xml version="1.0" encoding="utf-8"?>
<!-- Generator: Adobe Illustrator 21.1.0, SVG Export Plug-In . SVG Version: 6.00 Build 0)  -->
<svg version="1.1" id="Layer_1" xmlns="http://www.w3.org/2000/svg" xmlns:xlink="http://www.w3.org/1999/xlink" x="0px" y="0px"
	 viewBox="0 0 975 435" style="enable-background:new 0 0 975 435;" xml:space="preserve">
<style type="text/css">
	.st0{fill:#0F0F0F;}
</style>
<g>
	<path class="st0" d="M689.4,424.7h54.3V186.9c0-29.8,0-84.1-1.2-113.3h2.3c1.2,6.4,4.1,34.5,9.3,69.5L805,424.7h54.9l50.2-281.5
		c5.3-35,7-47.3,9.3-69.5h2.3c-1.2,29.2-1.2,83.5-1.2,113.3v237.7H975V9.9h-88.2l-45.6,264.6c-3.5,22.8-7,42.1-7.6,60.7h-2.3
		c-0.6-18.7-4.1-38-7.6-60.7L778.2,9.9h-88.8V424.7z M511.3,207.9v-153h32.1c34.5,0,48.5,18.1,48.5,62.5v23.9
		c0,45-13.4,66.6-47.9,66.6H511.3z M600.7,424.7h64.8l-61.3-186.9c32.1-14,50.8-46.7,50.8-98.1v-23.4
		C654.4,48.5,623.4,9.9,547.5,9.9H450v414.7h61.3V250.6h35.6L600.7,424.7z M304.9,384.3c-32.7,0-50.8-25.1-50.8-68.3V118.6
		c0-43.8,18.1-68.3,50.8-68.3c33.3,0,52,24.5,52,68.3V316C356.9,359.8,338.2,384.3,304.9,384.3 M304.9,434.6
		c73.6,0,115.1-43.8,115.1-125V125C420,43.8,378.5,0,304.9,0c-73,0-114.5,43.8-114.5,125v184.6C190.4,390.2,231.9,434.6,304.9,434.6
		 M172.9,60.2V9.9H0v414.7h61.3V236.6h102.2v-50.2H61.3V60.2H172.9z"/>
</g>
</svg>
